<?xml version="1.0" encoding="utf-8" standalone="no"?>
<!DOCTYPE svg PUBLIC "-//W3C//DTD SVG 1.1//EN"
  "http://www.w3.org/Graphics/SVG/1.1/DTD/svg11.dtd">
<!-- Created with matplotlib (https://matplotlib.org/) -->
<svg height="328.474375pt" version="1.1" viewBox="0 0 368.925 328.474375" width="368.925pt" xmlns="http://www.w3.org/2000/svg" xmlns:xlink="http://www.w3.org/1999/xlink">
 <defs>
  <style type="text/css">
*{stroke-linecap:butt;stroke-linejoin:round;}
  </style>
 </defs>
 <g id="figure_1">
  <g id="patch_1">
   <path d="M -0 328.474375 
L 368.925 328.474375 
L 368.925 0 
L -0 0 
z
" style="fill:none;"/>
  </g>
  <g id="axes_1">
   <g id="patch_2">
    <path d="M 26.925 224.64 
L 361.725 224.64 
L 361.725 7.2 
L 26.925 7.2 
z
" style="fill:#ffffff;"/>
   </g>
   <g id="matplotlib.axis_1">
    <g id="xtick_1">
     <g id="line2d_1">
      <defs>
       <path d="M 0 0 
L 0 3.5 
" id="mee7238596b" style="stroke:#000000;stroke-width:0.8;"/>
      </defs>
      <g>
       <use style="stroke:#000000;stroke-width:0.8;" x="42.143182" xlink:href="#mee7238596b" y="224.64"/>
      </g>
     </g>
     <g id="text_1">
      <!-- 2020/10/29 18:14 -->
      <defs>
       <path d="M 19.1875 8.296875 
L 53.609375 8.296875 
L 53.609375 0 
L 7.328125 0 
L 7.328125 8.296875 
Q 12.9375 14.109375 22.625 23.890625 
Q 32.328125 33.6875 34.8125 36.53125 
Q 39.546875 41.84375 41.421875 45.53125 
Q 43.3125 49.21875 43.3125 52.78125 
Q 43.3125 58.59375 39.234375 62.25 
Q 35.15625 65.921875 28.609375 65.921875 
Q 23.96875 65.921875 18.8125 64.3125 
Q 13.671875 62.703125 7.8125 59.421875 
L 7.8125 69.390625 
Q 13.765625 71.78125 18.9375 73 
Q 24.125 74.21875 28.421875 74.21875 
Q 39.75 74.21875 46.484375 68.546875 
Q 53.21875 62.890625 53.21875 53.421875 
Q 53.21875 48.921875 51.53125 44.890625 
Q 49.859375 40.875 45.40625 35.40625 
Q 44.1875 33.984375 37.640625 27.21875 
Q 31.109375 20.453125 19.1875 8.296875 
z
" id="DejaVuSans-50"/>
       <path d="M 31.78125 66.40625 
Q 24.171875 66.40625 20.328125 58.90625 
Q 16.5 51.421875 16.5 36.375 
Q 16.5 21.390625 20.328125 13.890625 
Q 24.171875 6.390625 31.78125 6.390625 
Q 39.453125 6.390625 43.28125 13.890625 
Q 47.125 21.390625 47.125 36.375 
Q 47.125 51.421875 43.28125 58.90625 
Q 39.453125 66.40625 31.78125 66.40625 
z
M 31.78125 74.21875 
Q 44.046875 74.21875 50.515625 64.515625 
Q 56.984375 54.828125 56.984375 36.375 
Q 56.984375 17.96875 50.515625 8.265625 
Q 44.046875 -1.421875 31.78125 -1.421875 
Q 19.53125 -1.421875 13.0625 8.265625 
Q 6.59375 17.96875 6.59375 36.375 
Q 6.59375 54.828125 13.0625 64.515625 
Q 19.53125 74.21875 31.78125 74.21875 
z
" id="DejaVuSans-48"/>
       <path d="M 25.390625 72.90625 
L 33.6875 72.90625 
L 8.296875 -9.28125 
L 0 -9.28125 
z
" id="DejaVuSans-47"/>
       <path d="M 12.40625 8.296875 
L 28.515625 8.296875 
L 28.515625 63.921875 
L 10.984375 60.40625 
L 10.984375 69.390625 
L 28.421875 72.90625 
L 38.28125 72.90625 
L 38.28125 8.296875 
L 54.390625 8.296875 
L 54.390625 0 
L 12.40625 0 
z
" id="DejaVuSans-49"/>
       <path d="M 10.984375 1.515625 
L 10.984375 10.5 
Q 14.703125 8.734375 18.5 7.8125 
Q 22.3125 6.890625 25.984375 6.890625 
Q 35.75 6.890625 40.890625 13.453125 
Q 46.046875 20.015625 46.78125 33.40625 
Q 43.953125 29.203125 39.59375 26.953125 
Q 35.25 24.703125 29.984375 24.703125 
Q 19.046875 24.703125 12.671875 31.3125 
Q 6.296875 37.9375 6.296875 49.421875 
Q 6.296875 60.640625 12.9375 67.421875 
Q 19.578125 74.21875 30.609375 74.21875 
Q 43.265625 74.21875 49.921875 64.515625 
Q 56.59375 54.828125 56.59375 36.375 
Q 56.59375 19.140625 48.40625 8.859375 
Q 40.234375 -1.421875 26.421875 -1.421875 
Q 22.703125 -1.421875 18.890625 -0.6875 
Q 15.09375 0.046875 10.984375 1.515625 
z
M 30.609375 32.421875 
Q 37.25 32.421875 41.125 36.953125 
Q 45.015625 41.5 45.015625 49.421875 
Q 45.015625 57.28125 41.125 61.84375 
Q 37.25 66.40625 30.609375 66.40625 
Q 23.96875 66.40625 20.09375 61.84375 
Q 16.21875 57.28125 16.21875 49.421875 
Q 16.21875 41.5 20.09375 36.953125 
Q 23.96875 32.421875 30.609375 32.421875 
z
" id="DejaVuSans-57"/>
       <path id="DejaVuSans-32"/>
       <path d="M 31.78125 34.625 
Q 24.75 34.625 20.71875 30.859375 
Q 16.703125 27.09375 16.703125 20.515625 
Q 16.703125 13.921875 20.71875 10.15625 
Q 24.75 6.390625 31.78125 6.390625 
Q 38.8125 6.390625 42.859375 10.171875 
Q 46.921875 13.96875 46.921875 20.515625 
Q 46.921875 27.09375 42.890625 30.859375 
Q 38.875 34.625 31.78125 34.625 
z
M 21.921875 38.8125 
Q 15.578125 40.375 12.03125 44.71875 
Q 8.5 49.078125 8.5 55.328125 
Q 8.5 64.0625 14.71875 69.140625 
Q 20.953125 74.21875 31.78125 74.21875 
Q 42.671875 74.21875 48.875 69.140625 
Q 55.078125 64.0625 55.078125 55.328125 
Q 55.078125 49.078125 51.53125 44.71875 
Q 48 40.375 41.703125 38.8125 
Q 48.828125 37.15625 52.796875 32.3125 
Q 56.78125 27.484375 56.78125 20.515625 
Q 56.78125 9.90625 50.3125 4.234375 
Q 43.84375 -1.421875 31.78125 -1.421875 
Q 19.734375 -1.421875 13.25 4.234375 
Q 6.78125 9.90625 6.78125 20.515625 
Q 6.78125 27.484375 10.78125 32.3125 
Q 14.796875 37.15625 21.921875 38.8125 
z
M 18.3125 54.390625 
Q 18.3125 48.734375 21.84375 45.5625 
Q 25.390625 42.390625 31.78125 42.390625 
Q 38.140625 42.390625 41.71875 45.5625 
Q 45.3125 48.734375 45.3125 54.390625 
Q 45.3125 60.0625 41.71875 63.234375 
Q 38.140625 66.40625 31.78125 66.40625 
Q 25.390625 66.40625 21.84375 63.234375 
Q 18.3125 60.0625 18.3125 54.390625 
z
" id="DejaVuSans-56"/>
       <path d="M 11.71875 12.40625 
L 22.015625 12.40625 
L 22.015625 0 
L 11.71875 0 
z
M 11.71875 51.703125 
L 22.015625 51.703125 
L 22.015625 39.3125 
L 11.71875 39.3125 
z
" id="DejaVuSans-58"/>
       <path d="M 37.796875 64.3125 
L 12.890625 25.390625 
L 37.796875 25.390625 
z
M 35.203125 72.90625 
L 47.609375 72.90625 
L 47.609375 25.390625 
L 58.015625 25.390625 
L 58.015625 17.1875 
L 47.609375 17.1875 
L 47.609375 0 
L 37.796875 0 
L 37.796875 17.1875 
L 4.890625 17.1875 
L 4.890625 26.703125 
z
" id="DejaVuSans-52"/>
      </defs>
      <g transform="translate(44.902557 321.274375)rotate(-90)scale(0.1 -0.1)">
       <use xlink:href="#DejaVuSans-50"/>
       <use x="63.623047" xlink:href="#DejaVuSans-48"/>
       <use x="127.246094" xlink:href="#DejaVuSans-50"/>
       <use x="190.869141" xlink:href="#DejaVuSans-48"/>
       <use x="254.492188" xlink:href="#DejaVuSans-47"/>
       <use x="288.183594" xlink:href="#DejaVuSans-49"/>
       <use x="351.806641" xlink:href="#DejaVuSans-48"/>
       <use x="415.429688" xlink:href="#DejaVuSans-47"/>
       <use x="449.121094" xlink:href="#DejaVuSans-50"/>
       <use x="512.744141" xlink:href="#DejaVuSans-57"/>
       <use x="576.367188" xlink:href="#DejaVuSans-32"/>
       <use x="608.154297" xlink:href="#DejaVuSans-49"/>
       <use x="671.777344" xlink:href="#DejaVuSans-56"/>
       <use x="735.400391" xlink:href="#DejaVuSans-58"/>
       <use x="769.091797" xlink:href="#DejaVuSans-49"/>
       <use x="832.714844" xlink:href="#DejaVuSans-52"/>
      </g>
     </g>
    </g>
    <g id="xtick_2">
     <g id="line2d_2">
      <g>
       <use style="stroke:#000000;stroke-width:0.8;" x="70.456078" xlink:href="#mee7238596b" y="224.64"/>
      </g>
     </g>
     <g id="text_2">
      <!-- 2020/10/31 10:18 -->
      <defs>
       <path d="M 40.578125 39.3125 
Q 47.65625 37.796875 51.625 33 
Q 55.609375 28.21875 55.609375 21.1875 
Q 55.609375 10.40625 48.1875 4.484375 
Q 40.765625 -1.421875 27.09375 -1.421875 
Q 22.515625 -1.421875 17.65625 -0.515625 
Q 12.796875 0.390625 7.625 2.203125 
L 7.625 11.71875 
Q 11.71875 9.328125 16.59375 8.109375 
Q 21.484375 6.890625 26.8125 6.890625 
Q 36.078125 6.890625 40.9375 10.546875 
Q 45.796875 14.203125 45.796875 21.1875 
Q 45.796875 27.640625 41.28125 31.265625 
Q 36.765625 34.90625 28.71875 34.90625 
L 20.21875 34.90625 
L 20.21875 43.015625 
L 29.109375 43.015625 
Q 36.375 43.015625 40.234375 45.921875 
Q 44.09375 48.828125 44.09375 54.296875 
Q 44.09375 59.90625 40.109375 62.90625 
Q 36.140625 65.921875 28.71875 65.921875 
Q 24.65625 65.921875 20.015625 65.03125 
Q 15.375 64.15625 9.8125 62.3125 
L 9.8125 71.09375 
Q 15.4375 72.65625 20.34375 73.4375 
Q 25.25 74.21875 29.59375 74.21875 
Q 40.828125 74.21875 47.359375 69.109375 
Q 53.90625 64.015625 53.90625 55.328125 
Q 53.90625 49.265625 50.4375 45.09375 
Q 46.96875 40.921875 40.578125 39.3125 
z
" id="DejaVuSans-51"/>
      </defs>
      <g transform="translate(73.215453 321.274375)rotate(-90)scale(0.1 -0.1)">
       <use xlink:href="#DejaVuSans-50"/>
       <use x="63.623047" xlink:href="#DejaVuSans-48"/>
       <use x="127.246094" xlink:href="#DejaVuSans-50"/>
       <use x="190.869141" xlink:href="#DejaVuSans-48"/>
       <use x="254.492188" xlink:href="#DejaVuSans-47"/>
       <use x="288.183594" xlink:href="#DejaVuSans-49"/>
       <use x="351.806641" xlink:href="#DejaVuSans-48"/>
       <use x="415.429688" xlink:href="#DejaVuSans-47"/>
       <use x="449.121094" xlink:href="#DejaVuSans-51"/>
       <use x="512.744141" xlink:href="#DejaVuSans-49"/>
       <use x="576.367188" xlink:href="#DejaVuSans-32"/>
       <use x="608.154297" xlink:href="#DejaVuSans-49"/>
       <use x="671.777344" xlink:href="#DejaVuSans-48"/>
       <use x="735.400391" xlink:href="#DejaVuSans-58"/>
       <use x="769.091797" xlink:href="#DejaVuSans-49"/>
       <use x="832.714844" xlink:href="#DejaVuSans-56"/>
      </g>
     </g>
    </g>
    <g id="xtick_3">
     <g id="line2d_3">
      <g>
       <use style="stroke:#000000;stroke-width:0.8;" x="98.768975" xlink:href="#mee7238596b" y="224.64"/>
      </g>
     </g>
     <g id="text_3">
      <!-- 2020/11/2 2:27 -->
      <defs>
       <path d="M 8.203125 72.90625 
L 55.078125 72.90625 
L 55.078125 68.703125 
L 28.609375 0 
L 18.3125 0 
L 43.21875 64.59375 
L 8.203125 64.59375 
z
" id="DejaVuSans-55"/>
      </defs>
      <g transform="translate(101.52835 308.549375)rotate(-90)scale(0.1 -0.1)">
       <use xlink:href="#DejaVuSans-50"/>
       <use x="63.623047" xlink:href="#DejaVuSans-48"/>
       <use x="127.246094" xlink:href="#DejaVuSans-50"/>
       <use x="190.869141" xlink:href="#DejaVuSans-48"/>
       <use x="254.492188" xlink:href="#DejaVuSans-47"/>
       <use x="288.183594" xlink:href="#DejaVuSans-49"/>
       <use x="351.806641" xlink:href="#DejaVuSans-49"/>
       <use x="415.429688" xlink:href="#DejaVuSans-47"/>
       <use x="449.121094" xlink:href="#DejaVuSans-50"/>
       <use x="512.744141" xlink:href="#DejaVuSans-32"/>
       <use x="544.53125" xlink:href="#DejaVuSans-50"/>
       <use x="608.154297" xlink:href="#DejaVuSans-58"/>
       <use x="641.845703" xlink:href="#DejaVuSans-50"/>
       <use x="705.46875" xlink:href="#DejaVuSans-55"/>
      </g>
     </g>
    </g>
    <g id="xtick_4">
     <g id="line2d_4">
      <g>
       <use style="stroke:#000000;stroke-width:0.8;" x="127.081871" xlink:href="#mee7238596b" y="224.64"/>
      </g>
     </g>
     <g id="text_4">
      <!-- 2020/11/3 19:14 -->
      <g transform="translate(129.841246 314.911875)rotate(-90)scale(0.1 -0.1)">
       <use xlink:href="#DejaVuSans-50"/>
       <use x="63.623047" xlink:href="#DejaVuSans-48"/>
       <use x="127.246094" xlink:href="#DejaVuSans-50"/>
       <use x="190.869141" xlink:href="#DejaVuSans-48"/>
       <use x="254.492188" xlink:href="#DejaVuSans-47"/>
       <use x="288.183594" xlink:href="#DejaVuSans-49"/>
       <use x="351.806641" xlink:href="#DejaVuSans-49"/>
       <use x="415.429688" xlink:href="#DejaVuSans-47"/>
       <use x="449.121094" xlink:href="#DejaVuSans-51"/>
       <use x="512.744141" xlink:href="#DejaVuSans-32"/>
       <use x="544.53125" xlink:href="#DejaVuSans-49"/>
       <use x="608.154297" xlink:href="#DejaVuSans-57"/>
       <use x="671.777344" xlink:href="#DejaVuSans-58"/>
       <use x="705.46875" xlink:href="#DejaVuSans-49"/>
       <use x="769.091797" xlink:href="#DejaVuSans-52"/>
      </g>
     </g>
    </g>
    <g id="xtick_5">
     <g id="line2d_5">
      <g>
       <use style="stroke:#000000;stroke-width:0.8;" x="155.394767" xlink:href="#mee7238596b" y="224.64"/>
      </g>
     </g>
     <g id="text_5">
      <!-- 2020/11/5 11:20 -->
      <defs>
       <path d="M 10.796875 72.90625 
L 49.515625 72.90625 
L 49.515625 64.59375 
L 19.828125 64.59375 
L 19.828125 46.734375 
Q 21.96875 47.46875 24.109375 47.828125 
Q 26.265625 48.1875 28.421875 48.1875 
Q 40.625 48.1875 47.75 41.5 
Q 54.890625 34.8125 54.890625 23.390625 
Q 54.890625 11.625 47.5625 5.09375 
Q 40.234375 -1.421875 26.90625 -1.421875 
Q 22.3125 -1.421875 17.546875 -0.640625 
Q 12.796875 0.140625 7.71875 1.703125 
L 7.71875 11.625 
Q 12.109375 9.234375 16.796875 8.0625 
Q 21.484375 6.890625 26.703125 6.890625 
Q 35.15625 6.890625 40.078125 11.328125 
Q 45.015625 15.765625 45.015625 23.390625 
Q 45.015625 31 40.078125 35.4375 
Q 35.15625 39.890625 26.703125 39.890625 
Q 22.75 39.890625 18.8125 39.015625 
Q 14.890625 38.140625 10.796875 36.28125 
z
" id="DejaVuSans-53"/>
      </defs>
      <g transform="translate(158.154142 314.911875)rotate(-90)scale(0.1 -0.1)">
       <use xlink:href="#DejaVuSans-50"/>
       <use x="63.623047" xlink:href="#DejaVuSans-48"/>
       <use x="127.246094" xlink:href="#DejaVuSans-50"/>
       <use x="190.869141" xlink:href="#DejaVuSans-48"/>
       <use x="254.492188" xlink:href="#DejaVuSans-47"/>
       <use x="288.183594" xlink:href="#DejaVuSans-49"/>
       <use x="351.806641" xlink:href="#DejaVuSans-49"/>
       <use x="415.429688" xlink:href="#DejaVuSans-47"/>
       <use x="449.121094" xlink:href="#DejaVuSans-53"/>
       <use x="512.744141" xlink:href="#DejaVuSans-32"/>
       <use x="544.53125" xlink:href="#DejaVuSans-49"/>
       <use x="608.154297" xlink:href="#DejaVuSans-49"/>
       <use x="671.777344" xlink:href="#DejaVuSans-58"/>
       <use x="705.46875" xlink:href="#DejaVuSans-50"/>
       <use x="769.091797" xlink:href="#DejaVuSans-48"/>
      </g>
     </g>
    </g>
    <g id="xtick_6">
     <g id="line2d_6">
      <g>
       <use style="stroke:#000000;stroke-width:0.8;" x="183.707664" xlink:href="#mee7238596b" y="224.64"/>
      </g>
     </g>
     <g id="text_6">
      <!-- 2020/11/7 3:20 -->
      <g transform="translate(186.467039 308.549375)rotate(-90)scale(0.1 -0.1)">
       <use xlink:href="#DejaVuSans-50"/>
       <use x="63.623047" xlink:href="#DejaVuSans-48"/>
       <use x="127.246094" xlink:href="#DejaVuSans-50"/>
       <use x="190.869141" xlink:href="#DejaVuSans-48"/>
       <use x="254.492188" xlink:href="#DejaVuSans-47"/>
       <use x="288.183594" xlink:href="#DejaVuSans-49"/>
       <use x="351.806641" xlink:href="#DejaVuSans-49"/>
       <use x="415.429688" xlink:href="#DejaVuSans-47"/>
       <use x="449.121094" xlink:href="#DejaVuSans-55"/>
       <use x="512.744141" xlink:href="#DejaVuSans-32"/>
       <use x="544.53125" xlink:href="#DejaVuSans-51"/>
       <use x="608.154297" xlink:href="#DejaVuSans-58"/>
       <use x="641.845703" xlink:href="#DejaVuSans-50"/>
       <use x="705.46875" xlink:href="#DejaVuSans-48"/>
      </g>
     </g>
    </g>
    <g id="xtick_7">
     <g id="line2d_7">
      <g>
       <use style="stroke:#000000;stroke-width:0.8;" x="212.02056" xlink:href="#mee7238596b" y="224.64"/>
      </g>
     </g>
     <g id="text_7">
      <!-- 2020/11/8 19:19 -->
      <g transform="translate(214.779935 314.911875)rotate(-90)scale(0.1 -0.1)">
       <use xlink:href="#DejaVuSans-50"/>
       <use x="63.623047" xlink:href="#DejaVuSans-48"/>
       <use x="127.246094" xlink:href="#DejaVuSans-50"/>
       <use x="190.869141" xlink:href="#DejaVuSans-48"/>
       <use x="254.492188" xlink:href="#DejaVuSans-47"/>
       <use x="288.183594" xlink:href="#DejaVuSans-49"/>
       <use x="351.806641" xlink:href="#DejaVuSans-49"/>
       <use x="415.429688" xlink:href="#DejaVuSans-47"/>
       <use x="449.121094" xlink:href="#DejaVuSans-56"/>
       <use x="512.744141" xlink:href="#DejaVuSans-32"/>
       <use x="544.53125" xlink:href="#DejaVuSans-49"/>
       <use x="608.154297" xlink:href="#DejaVuSans-57"/>
       <use x="671.777344" xlink:href="#DejaVuSans-58"/>
       <use x="705.46875" xlink:href="#DejaVuSans-49"/>
       <use x="769.091797" xlink:href="#DejaVuSans-57"/>
      </g>
     </g>
    </g>
    <g id="xtick_8">
     <g id="line2d_8">
      <g>
       <use style="stroke:#000000;stroke-width:0.8;" x="240.333457" xlink:href="#mee7238596b" y="224.64"/>
      </g>
     </g>
     <g id="text_8">
      <!-- 2020/11/10 11:21 -->
      <g transform="translate(243.092832 321.274375)rotate(-90)scale(0.1 -0.1)">
       <use xlink:href="#DejaVuSans-50"/>
       <use x="63.623047" xlink:href="#DejaVuSans-48"/>
       <use x="127.246094" xlink:href="#DejaVuSans-50"/>
       <use x="190.869141" xlink:href="#DejaVuSans-48"/>
       <use x="254.492188" xlink:href="#DejaVuSans-47"/>
       <use x="288.183594" xlink:href="#DejaVuSans-49"/>
       <use x="351.806641" xlink:href="#DejaVuSans-49"/>
       <use x="415.429688" xlink:href="#DejaVuSans-47"/>
       <use x="449.121094" xlink:href="#DejaVuSans-49"/>
       <use x="512.744141" xlink:href="#DejaVuSans-48"/>
       <use x="576.367188" xlink:href="#DejaVuSans-32"/>
       <use x="608.154297" xlink:href="#DejaVuSans-49"/>
       <use x="671.777344" xlink:href="#DejaVuSans-49"/>
       <use x="735.400391" xlink:href="#DejaVuSans-58"/>
       <use x="769.091797" xlink:href="#DejaVuSans-50"/>
       <use x="832.714844" xlink:href="#DejaVuSans-49"/>
      </g>
     </g>
    </g>
    <g id="xtick_9">
     <g id="line2d_9">
      <g>
       <use style="stroke:#000000;stroke-width:0.8;" x="268.646353" xlink:href="#mee7238596b" y="224.64"/>
      </g>
     </g>
     <g id="text_9">
      <!-- 2020/11/12 3:21 -->
      <g transform="translate(271.405728 314.911875)rotate(-90)scale(0.1 -0.1)">
       <use xlink:href="#DejaVuSans-50"/>
       <use x="63.623047" xlink:href="#DejaVuSans-48"/>
       <use x="127.246094" xlink:href="#DejaVuSans-50"/>
       <use x="190.869141" xlink:href="#DejaVuSans-48"/>
       <use x="254.492188" xlink:href="#DejaVuSans-47"/>
       <use x="288.183594" xlink:href="#DejaVuSans-49"/>
       <use x="351.806641" xlink:href="#DejaVuSans-49"/>
       <use x="415.429688" xlink:href="#DejaVuSans-47"/>
       <use x="449.121094" xlink:href="#DejaVuSans-49"/>
       <use x="512.744141" xlink:href="#DejaVuSans-50"/>
       <use x="576.367188" xlink:href="#DejaVuSans-32"/>
       <use x="608.154297" xlink:href="#DejaVuSans-51"/>
       <use x="671.777344" xlink:href="#DejaVuSans-58"/>
       <use x="705.46875" xlink:href="#DejaVuSans-50"/>
       <use x="769.091797" xlink:href="#DejaVuSans-49"/>
      </g>
     </g>
    </g>
    <g id="xtick_10">
     <g id="line2d_10">
      <g>
       <use style="stroke:#000000;stroke-width:0.8;" x="296.959249" xlink:href="#mee7238596b" y="224.64"/>
      </g>
     </g>
     <g id="text_10">
      <!-- 2020/11/13 19:44 -->
      <g transform="translate(299.718624 321.274375)rotate(-90)scale(0.1 -0.1)">
       <use xlink:href="#DejaVuSans-50"/>
       <use x="63.623047" xlink:href="#DejaVuSans-48"/>
       <use x="127.246094" xlink:href="#DejaVuSans-50"/>
       <use x="190.869141" xlink:href="#DejaVuSans-48"/>
       <use x="254.492188" xlink:href="#DejaVuSans-47"/>
       <use x="288.183594" xlink:href="#DejaVuSans-49"/>
       <use x="351.806641" xlink:href="#DejaVuSans-49"/>
       <use x="415.429688" xlink:href="#DejaVuSans-47"/>
       <use x="449.121094" xlink:href="#DejaVuSans-49"/>
       <use x="512.744141" xlink:href="#DejaVuSans-51"/>
       <use x="576.367188" xlink:href="#DejaVuSans-32"/>
       <use x="608.154297" xlink:href="#DejaVuSans-49"/>
       <use x="671.777344" xlink:href="#DejaVuSans-57"/>
       <use x="735.400391" xlink:href="#DejaVuSans-58"/>
       <use x="769.091797" xlink:href="#DejaVuSans-52"/>
       <use x="832.714844" xlink:href="#DejaVuSans-52"/>
      </g>
     </g>
    </g>
    <g id="xtick_11">
     <g id="line2d_11">
      <g>
       <use style="stroke:#000000;stroke-width:0.8;" x="325.272146" xlink:href="#mee7238596b" y="224.64"/>
      </g>
     </g>
     <g id="text_11">
      <!-- 2020/11/15 11:50 -->
      <g transform="translate(328.031521 321.274375)rotate(-90)scale(0.1 -0.1)">
       <use xlink:href="#DejaVuSans-50"/>
       <use x="63.623047" xlink:href="#DejaVuSans-48"/>
       <use x="127.246094" xlink:href="#DejaVuSans-50"/>
       <use x="190.869141" xlink:href="#DejaVuSans-48"/>
       <use x="254.492188" xlink:href="#DejaVuSans-47"/>
       <use x="288.183594" xlink:href="#DejaVuSans-49"/>
       <use x="351.806641" xlink:href="#DejaVuSans-49"/>
       <use x="415.429688" xlink:href="#DejaVuSans-47"/>
       <use x="449.121094" xlink:href="#DejaVuSans-49"/>
       <use x="512.744141" xlink:href="#DejaVuSans-53"/>
       <use x="576.367188" xlink:href="#DejaVuSans-32"/>
       <use x="608.154297" xlink:href="#DejaVuSans-49"/>
       <use x="671.777344" xlink:href="#DejaVuSans-49"/>
       <use x="735.400391" xlink:href="#DejaVuSans-58"/>
       <use x="769.091797" xlink:href="#DejaVuSans-53"/>
       <use x="832.714844" xlink:href="#DejaVuSans-48"/>
      </g>
     </g>
    </g>
    <g id="xtick_12">
     <g id="line2d_12">
      <g>
       <use style="stroke:#000000;stroke-width:0.8;" x="353.585042" xlink:href="#mee7238596b" y="224.64"/>
      </g>
     </g>
    </g>
   </g>
   <g id="matplotlib.axis_2">
    <g id="ytick_1">
     <g id="line2d_13">
      <defs>
       <path d="M 0 0 
L -3.5 0 
" id="mf500e5a349" style="stroke:#000000;stroke-width:0.8;"/>
      </defs>
      <g>
       <use style="stroke:#000000;stroke-width:0.8;" x="26.925" xlink:href="#mf500e5a349" y="200.651555"/>
      </g>
     </g>
     <g id="text_12">
      <!-- 20 -->
      <g transform="translate(7.2 204.450774)scale(0.1 -0.1)">
       <use xlink:href="#DejaVuSans-50"/>
       <use x="63.623047" xlink:href="#DejaVuSans-48"/>
      </g>
     </g>
    </g>
    <g id="ytick_2">
     <g id="line2d_14">
      <g>
       <use style="stroke:#000000;stroke-width:0.8;" x="26.925" xlink:href="#mf500e5a349" y="166.416583"/>
      </g>
     </g>
     <g id="text_13">
      <!-- 30 -->
      <g transform="translate(7.2 170.215802)scale(0.1 -0.1)">
       <use xlink:href="#DejaVuSans-51"/>
       <use x="63.623047" xlink:href="#DejaVuSans-48"/>
      </g>
     </g>
    </g>
    <g id="ytick_3">
     <g id="line2d_15">
      <g>
       <use style="stroke:#000000;stroke-width:0.8;" x="26.925" xlink:href="#mf500e5a349" y="132.181612"/>
      </g>
     </g>
     <g id="text_14">
      <!-- 40 -->
      <g transform="translate(7.2 135.98083)scale(0.1 -0.1)">
       <use xlink:href="#DejaVuSans-52"/>
       <use x="63.623047" xlink:href="#DejaVuSans-48"/>
      </g>
     </g>
    </g>
    <g id="ytick_4">
     <g id="line2d_16">
      <g>
       <use style="stroke:#000000;stroke-width:0.8;" x="26.925" xlink:href="#mf500e5a349" y="97.94664"/>
      </g>
     </g>
     <g id="text_15">
      <!-- 50 -->
      <g transform="translate(7.2 101.745859)scale(0.1 -0.1)">
       <use xlink:href="#DejaVuSans-53"/>
       <use x="63.623047" xlink:href="#DejaVuSans-48"/>
      </g>
     </g>
    </g>
    <g id="ytick_5">
     <g id="line2d_17">
      <g>
       <use style="stroke:#000000;stroke-width:0.8;" x="26.925" xlink:href="#mf500e5a349" y="63.711668"/>
      </g>
     </g>
     <g id="text_16">
      <!-- 60 -->
      <defs>
       <path d="M 33.015625 40.375 
Q 26.375 40.375 22.484375 35.828125 
Q 18.609375 31.296875 18.609375 23.390625 
Q 18.609375 15.53125 22.484375 10.953125 
Q 26.375 6.390625 33.015625 6.390625 
Q 39.65625 6.390625 43.53125 10.953125 
Q 47.40625 15.53125 47.40625 23.390625 
Q 47.40625 31.296875 43.53125 35.828125 
Q 39.65625 40.375 33.015625 40.375 
z
M 52.59375 71.296875 
L 52.59375 62.3125 
Q 48.875 64.0625 45.09375 64.984375 
Q 41.3125 65.921875 37.59375 65.921875 
Q 27.828125 65.921875 22.671875 59.328125 
Q 17.53125 52.734375 16.796875 39.40625 
Q 19.671875 43.65625 24.015625 45.921875 
Q 28.375 48.1875 33.59375 48.1875 
Q 44.578125 48.1875 50.953125 41.515625 
Q 57.328125 34.859375 57.328125 23.390625 
Q 57.328125 12.15625 50.6875 5.359375 
Q 44.046875 -1.421875 33.015625 -1.421875 
Q 20.359375 -1.421875 13.671875 8.265625 
Q 6.984375 17.96875 6.984375 36.375 
Q 6.984375 53.65625 15.1875 63.9375 
Q 23.390625 74.21875 37.203125 74.21875 
Q 40.921875 74.21875 44.703125 73.484375 
Q 48.484375 72.75 52.59375 71.296875 
z
" id="DejaVuSans-54"/>
      </defs>
      <g transform="translate(7.2 67.510887)scale(0.1 -0.1)">
       <use xlink:href="#DejaVuSans-54"/>
       <use x="63.623047" xlink:href="#DejaVuSans-48"/>
      </g>
     </g>
    </g>
    <g id="ytick_6">
     <g id="line2d_18">
      <g>
       <use style="stroke:#000000;stroke-width:0.8;" x="26.925" xlink:href="#mf500e5a349" y="29.476696"/>
      </g>
     </g>
     <g id="text_17">
      <!-- 70 -->
      <g transform="translate(7.2 33.275915)scale(0.1 -0.1)">
       <use xlink:href="#DejaVuSans-55"/>
       <use x="63.623047" xlink:href="#DejaVuSans-48"/>
      </g>
     </g>
    </g>
   </g>
   <g id="line2d_19">
    <path clip-path="url(#p20f9e640eb)" d="M 42.143182 214.756364 
L 43.558827 213.28426 
L 44.974471 210.271582 
L 46.390116 206.197621 
L 47.805761 200.856965 
L 49.221406 193.393741 
L 50.637051 181.171856 
L 53.46834 148.648633 
L 54.883985 142.041283 
L 56.29963 126.840956 
L 57.715275 118.076803 
L 59.13092 115.064126 
L 60.546564 122.972404 
L 63.377854 120.404781 
L 64.793499 118.693033 
L 66.209144 115.92 
L 67.624789 114.002842 
L 69.040433 112.496503 
L 70.456078 111.435219 
L 71.871723 110.990164 
L 73.287368 110.784754 
L 76.118658 111.229809 
L 77.534302 111.846038 
L 80.365592 112.701913 
L 81.781237 113.352377 
L 83.196882 113.557787 
L 84.612526 114.002842 
L 86.028171 114.208251 
L 87.443816 113.352377 
L 88.859461 104.382814 
L 90.275106 93.872678 
L 91.690751 67.545985 
L 93.106395 46.388772 
L 94.52204 35.467816 
L 95.937685 27.354128 
L 97.35333 20.062079 
L 98.768975 17.083636 
L 100.184619 17.699866 
L 101.600264 19.411614 
L 103.015909 20.267489 
L 105.847199 20.712543 
L 107.262844 21.123363 
L 108.678488 22.218882 
L 110.094133 30.777625 
L 111.509778 24.75227 
L 112.925423 25.847789 
L 115.756712 30.777625 
L 117.172357 32.900193 
L 118.588002 34.406532 
L 120.003647 36.118281 
L 121.419292 38.685904 
L 122.834937 43.170685 
L 124.250581 46.594182 
L 125.666226 49.367215 
L 127.081871 51.078963 
L 128.497516 51.318608 
L 129.913161 50.223089 
L 131.328805 48.100521 
L 134.160095 44.231969 
L 135.57574 43.170685 
L 136.991385 42.759865 
L 138.40703 43.376095 
L 139.822674 44.677024 
L 141.238319 45.532898 
L 144.069609 47.655466 
L 148.316543 49.60686 
L 149.732188 50.017679 
L 151.147833 50.223089 
L 152.563478 50.223089 
L 153.979123 51.078963 
L 155.394767 54.742105 
L 156.810412 54.947515 
L 158.226057 53.851996 
L 161.057347 50.873554 
L 162.472992 49.60686 
L 163.888636 49.161805 
L 165.304281 48.956395 
L 166.719926 49.367215 
L 168.135571 50.223089 
L 169.551216 51.318608 
L 170.96686 52.585302 
L 172.382505 63.506258 
L 173.79815 65.628826 
L 175.213795 67.991039 
L 176.62944 70.764072 
L 178.045085 103.287295 
L 179.460729 101.780957 
L 180.876374 98.357459 
L 182.292019 93.872678 
L 186.538953 79.322815 
L 187.954598 75.043444 
L 189.370243 76.344373 
L 190.785888 76.994837 
L 192.201533 77.816476 
L 195.032822 80.829154 
L 197.864112 84.252651 
L 200.695402 88.532023 
L 204.942336 95.824072 
L 206.357981 98.802514 
L 209.189271 107.806312 
L 210.604915 111.435219 
L 212.02056 113.557787 
L 213.436205 115.92 
L 214.85185 117.837158 
L 216.267495 119.993962 
L 221.930074 127.69683 
L 223.345719 130.264453 
L 226.177008 136.015928 
L 227.592653 138.617786 
L 230.423943 144.814316 
L 234.670877 155.290218 
L 237.502167 162.787676 
L 238.917812 166.211174 
L 240.333457 168.984206 
L 241.749101 171.14101 
L 245.996036 176.892485 
L 248.827326 179.460108 
L 251.658615 181.616911 
L 253.07426 182.472785 
L 254.489905 183.12325 
L 265.815063 189.730599 
L 267.230708 190.791883 
L 268.646353 191.681993 
L 270.061998 192.743277 
L 271.477643 193.599151 
L 272.893288 194.660435 
L 275.724577 195.927129 
L 278.555867 196.817238 
L 282.802801 197.433468 
L 284.218446 197.878523 
L 285.634091 197.878523 
L 287.049736 198.289342 
L 289.881025 198.734397 
L 291.29667 199.145216 
L 292.712315 199.145216 
L 294.12796 199.350626 
L 296.959249 199.350626 
L 298.374894 199.590271 
L 299.790539 199.590271 
L 302.621829 200.001091 
L 304.037474 200.001091 
L 305.453118 200.446145 
L 306.868763 200.446145 
L 309.700053 200.856965 
L 311.115698 200.856965 
L 312.531342 201.062375 
L 313.946987 201.062375 
L 315.362632 201.30202 
L 318.193922 201.30202 
L 319.609567 201.712839 
L 321.025211 201.952484 
L 322.440856 201.952484 
L 326.687791 202.568714 
L 330.934725 202.568714 
L 332.35037 202.774124 
L 335.18166 202.774124 
L 336.597304 203.013768 
L 338.012949 203.013768 
L 340.844239 203.424588 
L 342.259884 203.424588 
L 343.675529 203.664233 
L 346.506818 203.664233 
L 346.506818 203.664233 
" style="fill:none;stroke:#1f77b4;stroke-linecap:square;stroke-width:1.5;"/>
   </g>
   <g id="patch_3">
    <path d="M 26.925 224.64 
L 26.925 7.2 
" style="fill:none;stroke:#000000;stroke-linecap:square;stroke-linejoin:miter;stroke-width:0.8;"/>
   </g>
   <g id="patch_4">
    <path d="M 361.725 224.64 
L 361.725 7.2 
" style="fill:none;stroke:#000000;stroke-linecap:square;stroke-linejoin:miter;stroke-width:0.8;"/>
   </g>
   <g id="patch_5">
    <path d="M 26.925 224.64 
L 361.725 224.64 
" style="fill:none;stroke:#000000;stroke-linecap:square;stroke-linejoin:miter;stroke-width:0.8;"/>
   </g>
   <g id="patch_6">
    <path d="M 26.925 7.2 
L 361.725 7.2 
" style="fill:none;stroke:#000000;stroke-linecap:square;stroke-linejoin:miter;stroke-width:0.8;"/>
   </g>
  </g>
 </g>
 <defs>
  <clipPath id="p20f9e640eb">
   <rect height="217.44" width="334.8" x="26.925" y="7.2"/>
  </clipPath>
 </defs>
</svg>
